<svg width="20" height="21" viewBox="0 0 20 21" fill="none" xmlns="http://www.w3.org/2000/svg">
<path d="M8.49993 1.51472C8.49993 0.686292 9.1715 0.0147189 9.99993 0.0147187C10.8284 0.0147191 11.4999 0.686292 11.4999 1.51472L8.49993 1.51472ZM9.99993 18.4853L11.0606 19.5459L9.99993 20.6066L8.93927 19.5459L9.99993 18.4853ZM9.99993 1.51472L11.4999 1.51472V18.4853L9.99993 18.4853L8.49993 18.4853V1.51472L9.99993 1.51472ZM9.99993 18.4853L8.93927 19.5459L0.453988 11.0607L1.51465 10L2.57531 8.93934L11.0606 17.4246L9.99993 18.4853ZM9.99993 18.4853L8.93927 17.4246L17.4246 8.93934L18.4852 10L19.5459 11.0607L11.0606 19.5459L9.99993 18.4853Z" fill="white"/>
</svg>
