<svg width="21" height="21" viewBox="0 0 21 21" fill="none" xmlns="http://www.w3.org/2000/svg">
<path d="M8.98528 1.51472C8.98528 0.686292 9.65685 0.0147189 10.4853 0.0147187C11.3137 0.0147191 11.9853 0.686292 11.9853 1.51472L10.4853 1.51472L8.98528 1.51472ZM10.4853 18.4853L11.5459 19.5459L10.4853 20.6066L9.42462 19.5459L10.4853 18.4853ZM10.4853 1.51472L11.9853 1.51472V18.4853L10.4853 18.4853L8.98528 18.4853V1.51472L10.4853 1.51472ZM10.4853 18.4853L9.42462 19.5459L0.93934 11.0607L2 10L3.06066 8.93934L11.5459 17.4246L10.4853 18.4853ZM10.4853 18.4853L9.42462 17.4246L17.9099 8.93934L18.9706 10L20.0312 11.0607L11.5459 19.5459L10.4853 18.4853Z" fill="white"/>
</svg>
