<svg width="21" height="21" viewBox="0 0 21 21" fill="none" xmlns="http://www.w3.org/2000/svg">
<path d="M8.99993 1.51472C8.99993 0.686292 9.6715 0.0147189 10.4999 0.0147187C11.3284 0.0147191 11.9999 0.686292 11.9999 1.51472L8.99993 1.51472ZM10.4999 18.4853L11.5606 19.5459L10.4999 20.6066L9.43927 19.5459L10.4999 18.4853ZM10.4999 1.51472L11.9999 1.51472V18.4853L10.4999 18.4853L8.99993 18.4853V1.51472L10.4999 1.51472ZM10.4999 18.4853L9.43927 19.5459L0.953988 11.0607L2.01465 10L3.07531 8.93934L11.5606 17.4246L10.4999 18.4853ZM10.4999 18.4853L9.43927 17.4246L17.9246 8.93934L18.9852 10L20.0459 11.0607L11.5606 19.5459L10.4999 18.4853Z" fill="#151515"/>
</svg>
