<svg width="28" height="25" viewBox="0 0 28 25" fill="none" xmlns="http://www.w3.org/2000/svg">
<path d="M2.77051 10.5353C1.68538 10.5353 0.80571 11.4149 0.80571 12.5001C0.80571 13.5852 1.68538 14.4649 2.77051 14.4649V12.5001V10.5353ZM24.9997 12.5001L26.389 13.8894L27.7783 12.5001L26.389 11.1107L24.9997 12.5001ZM2.77051 12.5001V14.4649H24.9997V12.5001V10.5353H2.77051V12.5001ZM24.9997 12.5001L26.389 11.1107L15.2744 -0.00382352L13.8851 1.3855L12.4958 2.77482L23.6103 13.8894L24.9997 12.5001ZM24.9997 12.5001L23.6103 11.1107L12.4958 22.2253L13.8851 23.6146L15.2744 25.004L26.389 13.8894L24.9997 12.5001Z" fill="#808991"/>
</svg>
