<svg width="21" height="23" viewBox="0 0 21 23" fill="none" xmlns="http://www.w3.org/2000/svg">
<path d="M16 0.614258C17.1046 0.614258 18 1.50969 18 2.61426V4.58203C17.9952 4.57963 17.9902 4.57758 17.9854 4.5752C19.4749 5.30876 20.5 6.84165 20.5 8.61426C20.5 10.381 19.4815 11.9091 18 12.6455V20.1143C18 21.2188 17.1046 22.1143 16 22.1143C14.8954 22.1143 14 21.2188 14 20.1143V12.6455C12.5185 11.9091 11.5 10.381 11.5 8.61426C11.5 6.84196 12.5245 5.30891 14.0137 4.5752C14.0091 4.57745 14.0046 4.57976 14 4.58203V2.61426C14 1.50969 14.8954 0.614258 16 0.614258ZM16 6.66406C14.923 6.66406 14.0498 7.5373 14.0498 8.61426C14.0498 9.69121 14.923 10.5645 16 10.5645C17.077 10.5645 17.9502 9.69121 17.9502 8.61426C17.9502 7.5373 17.077 6.66406 16 6.66406Z" fill="#151515"/>
<path d="M4.5 22.1143C5.60457 22.1143 6.5 21.2188 6.5 20.1143V18.1465C6.49518 18.1489 6.49019 18.1509 6.48535 18.1533C7.97491 17.4198 9 15.8869 9 14.1143C9 12.3476 7.9815 10.8194 6.5 10.083V2.61426C6.5 1.50969 5.60457 0.614258 4.5 0.614258C3.39543 0.614258 2.5 1.50969 2.5 2.61426V10.083C1.0185 10.8194 0 12.3476 0 14.1143C0 15.8866 1.02454 17.4196 2.51367 18.1533C2.5091 18.1511 2.50456 18.1488 2.5 18.1465V20.1143C2.5 21.2188 3.39543 22.1143 4.5 22.1143ZM4.5 16.0645C3.42304 16.0645 2.5498 15.1912 2.5498 14.1143C2.5498 13.0373 3.42304 12.1641 4.5 12.1641C5.57696 12.1641 6.4502 13.0373 6.4502 14.1143C6.4502 15.1912 5.57696 16.0645 4.5 16.0645Z" fill="#151515"/>
</svg>
