<svg width="26" height="26" viewBox="0 0 26 26" fill="none" xmlns="http://www.w3.org/2000/svg">
<path fill-rule="evenodd" clip-rule="evenodd" d="M17.1667 8.83344H8.83336V17.1668H17.1667V8.83344ZM14.3888 14.3891H11.611V11.6113H14.3888V14.3891ZM25.5 11.6111V8.83333H22.7222V6.05556C22.7222 4.52778 21.4722 3.27778 19.9444 3.27778H17.1667V0.5H14.3889V3.27778H11.6111V0.5H8.83333V3.27778H6.05556C4.52778 3.27778 3.27778 4.52778 3.27778 6.05556V8.83333H0.5V11.6111H3.27778V14.3889H0.5V17.1667H3.27778V19.9444C3.27778 21.4722 4.52778 22.7222 6.05556 22.7222H8.83333V25.5H11.6111V22.7222H14.3889V25.5H17.1667V22.7222H19.9444C21.4722 22.7222 22.7222 21.4722 22.7222 19.9444V17.1667H25.5V14.3889H22.7222V11.6111H25.5ZM19.9446 19.9445H6.05569V6.05557H19.9446V19.9445Z" fill="#151515"/>
</svg>
