<svg width="80" height="80" viewBox="0 0 80 80" fill="none" xmlns="http://www.w3.org/2000/svg">
<path d="M-0.00012207 30.1587C-0.00012207 13.5025 13.5024 0 30.1586 0H49.8411C66.4974 0 79.9999 13.5025 79.9999 30.1587V49.8413C79.9999 66.4975 66.4974 80 49.8411 80H30.1586C13.5024 80 -0.00012207 66.4975 -0.00012207 49.8413V30.1587Z" fill="white"/>
<path fill-rule="evenodd" clip-rule="evenodd" d="M46.6317 33.3682H33.3685V46.6313H46.6317V33.3682ZM42.2105 42.2101H37.7894V37.7891H42.2105V42.2101ZM59.8946 37.7897V33.3686H55.4735V28.9476C55.4735 26.516 53.4841 24.5265 51.0525 24.5265H46.6314V20.1055H42.2104V24.5265H37.7893V20.1055H33.3683V24.5265H28.9472C26.5156 24.5265 24.5262 26.516 24.5262 28.9476V33.3686H20.1051V37.7897H24.5262V42.2107H20.1051V46.6318H24.5262V51.0528C24.5262 53.4844 26.5156 55.4739 28.9472 55.4739H33.3683V59.8949H37.7893V55.4739H42.2104V59.8949H46.6314V55.4739H51.0525C53.4841 55.4739 55.4735 53.4844 55.4735 51.0528V46.6318H59.8946V42.2107H55.4735V37.7897H59.8946ZM51.0524 51.0527H28.9472V28.9474H51.0524V51.0527Z" fill="#2D2F31"/>
</svg>
