<svg width="48" height="49" viewBox="0 0 48 49" fill="none" xmlns="http://www.w3.org/2000/svg">
<g clip-path="url(#clip0_264_108)">
<path d="M38.0598 7.24852C34.7198 4.46852 30.5798 2.64852 25.9998 2.22852V6.24852C29.4598 6.62852 32.6198 8.00852 35.2198 10.0885L38.0598 7.24852Z" fill="black"/>
<path d="M22.0002 6.24852V2.22852C17.4202 2.62852 13.2802 4.46852 9.94019 7.24852L12.7802 10.0885C15.3802 8.00852 18.5402 6.62852 22.0002 6.24852Z" fill="black"/>
<path d="M9.95985 12.9074L7.11985 10.0674C4.33985 13.4074 2.51985 17.5474 2.09985 22.1274H6.11985C6.49985 18.6674 7.87985 15.5074 9.95985 12.9074Z" fill="black"/>
<path d="M41.88 22.1274H45.9C45.48 17.5474 43.66 13.4074 40.88 10.0674L38.04 12.9074C40.12 15.5074 41.5 18.6674 41.88 22.1274Z" fill="black"/>
<path d="M14 24.126L20.88 27.246L24 34.126L27.12 27.246L34 24.126L27.12 21.006L24 14.126L20.88 21.006L14 24.126Z" fill="black"/>
<path d="M24 42.1264C17.78 42.1264 12.3 38.9464 9.08 34.1264H14V30.1264H2V42.1264H6V36.7264C9.98 42.4064 16.54 46.1264 24 46.1264C33.74 46.1264 42 39.7864 44.88 31.0064L40.96 30.1064C38.5 37.0864 31.84 42.1264 24 42.1264Z" fill="black"/>
</g>
<defs>
<clipPath id="clip0_264_108">
<rect width="48" height="48" fill="white" transform="translate(0 0.126953)"/>
</clipPath>
</defs>
</svg>
