<svg width="33" height="33" viewBox="0 0 33 33" fill="none" xmlns="http://www.w3.org/2000/svg">
<path d="M19.5396 10.8025C19.5396 12.1116 20.6008 13.1729 21.9099 13.1729H30.2063C31.5154 13.1729 32.5767 14.2341 32.5767 15.5432V16.7283C32.5767 18.0374 31.5154 19.0986 30.2063 19.0986H21.9099C20.6008 19.0986 19.5396 20.1599 19.5396 21.469V29.7654C19.5396 31.0745 18.4783 32.1357 17.1692 32.1357H15.9841C14.675 32.1357 13.6138 31.0745 13.6138 29.7654V21.469C13.6138 20.1599 12.5525 19.0986 11.2434 19.0986H2.947C1.6379 19.0986 0.57666 18.0374 0.57666 16.7283V15.5432C0.57666 14.2341 1.6379 13.1729 2.94701 13.1729H11.2434C12.5525 13.1729 13.6138 12.1116 13.6138 10.8025V2.50609C13.6138 1.19698 14.675 0.135742 15.9841 0.135742H17.1692C18.4783 0.135742 19.5396 1.19698 19.5396 2.50609V10.8025Z" fill="white" fill-opacity="0.6"/>
</svg>
