<svg width="28" height="20" viewBox="0 0 28 20" fill="none" xmlns="http://www.w3.org/2000/svg">
<path d="M11.3334 13.7611L18.2534 9.76107L11.3334 5.76107V13.7611ZM26.7467 3.32107C26.92 3.94773 27.04 4.78773 27.12 5.8544C27.2134 6.92107 27.2534 7.84107 27.2534 8.64107L27.3334 9.76107C27.3334 12.6811 27.12 14.8277 26.7467 16.2011C26.4134 17.4011 25.64 18.1744 24.44 18.5077C23.8134 18.6811 22.6667 18.8011 20.9067 18.8811C19.1734 18.9744 17.5867 19.0144 16.12 19.0144L14 19.0944C8.41335 19.0944 4.93335 18.8811 3.56002 18.5077C2.36002 18.1744 1.58669 17.4011 1.25335 16.2011C1.08002 15.5744 0.96002 14.7344 0.88002 13.6677C0.786687 12.6011 0.746687 11.6811 0.746687 10.8811L0.666687 9.76107C0.666687 6.84107 0.88002 4.6944 1.25335 3.32107C1.58669 2.12107 2.36002 1.34773 3.56002 1.0144C4.18669 0.841068 5.33335 0.721067 7.09335 0.641067C8.82669 0.547734 10.4134 0.507734 11.88 0.507734L14 0.427734C19.5867 0.427734 23.0667 0.641068 24.44 1.0144C25.64 1.34773 26.4134 2.12107 26.7467 3.32107Z" fill="#151515"/>
</svg>
